<?xml version="1.0" encoding="utf-8"?>

<!-- Uploaded to: SVG Repo, www.svgrepo.com, Generator: SVG Repo Mixer Tools -->
<svg width="800px" height="800px" viewBox="0 -3.3 120.08 120.08" xmlns="http://www.w3.org/2000/svg">

<defs>

<style>.cls-1{fill:#ffffff;}</style>

</defs>

<g id="Layer_2" data-name="Layer 2">

<g id="Layer_1-2" data-name="Layer 1">

<path d="M120.08,18.11c-7.77,6.46-15.7,12.89-23.45,19.53C88.4,44.7,80.15,51.75,72.25,59.16c-10.83,10.15-21.38,20.6-32,31-5.1,5-10,10.15-15.13,15.17A69,69,0,0,1,18.76,111c-3.34,2.57-6.1,2.39-9.16-.51s-6-6-8.8-8.75c-.07-4,1.8-6.47,3.92-8.83,14-15.48,27.68-31.2,42-46.36C59,33.5,71.88,20.87,85.89,9.51c2.66-2.16,5.22-4.54,8.18-6.2a31.21,31.21,0,0,1,8.78-3,6.72,6.72,0,0,1,4.85,1.05,64.73,64.73,0,0,1,8.83,8A12.73,12.73,0,0,1,120.08,18.11ZM10.3,98.91c2.68,4.09,4,4.83,6.58,3a76.28,76.28,0,0,0,8.48-7.18c14.36-14,28.55-28.07,43-41.95,7.16-6.89,14.77-13.33,22.1-20.05,6.3-5.78,12.49-11.68,19.17-17.94l-5.91-5.9a17.52,17.52,0,0,0-9,3.95C88.93,18,83,22.88,77.48,28.3c-14,13.88-27.83,28-41.71,42-.6.6-1.14,1.27-1.69,1.93-2.9,3.5-5.68,7.12-8.72,10.5C20.41,88.22,15.3,93.56,10.3,98.91Z"/>


<path class="cls-1" d="M10.3,98.91c5-5.35,10.11-10.69,15.06-16.18,3-3.38,5.82-7,8.72-10.5.55-.66,1.09-1.33,1.69-1.93,13.88-14,27.68-28.12,41.71-42C83,22.88,88.93,18,94.7,12.83a17.52,17.52,0,0,1,9-3.95l5.91,5.9C102.94,21,96.75,26.94,90.45,32.72c-7.33,6.72-14.94,13.16-22.1,20.05-14.44,13.88-28.63,28-43,41.95a76.28,76.28,0,0,1-8.48,7.18C14.34,103.74,13,103,10.3,98.91Z"/>


</g>

</g>

</svg>