<?xml version="1.0" encoding="utf-8"?>

<!-- Uploaded to: SVG Repo, www.svgrepo.com, Generator: SVG Repo Mixer Tools -->
<svg width="800px" height="800px" viewBox="0 -20.73 126.05 126.05" xmlns="http://www.w3.org/2000/svg">

<defs>

<style>.cls-1{fill:#ffffff;}</style>

</defs>

<g id="Layer_2" data-name="Layer 2">

<g id="Layer_1-2" data-name="Layer 1">

<path d="M.77,81.87C-.5,76.74.15,71.31.3,65.91A6.91,6.91,0,0,1,5.75,59c5.77-1.54,11.64-2.82,17.52-3.88,16.73-3,33.7-1.71,50.55-2.49,10.29-.48,20.6-.63,30.9-.72a63.7,63.7,0,0,1,11.11.87c6.4,1.07,9.2,4.37,8.39,10.64-.53,4.15.81,8.6-1.57,12.87-3.42.27-6.79.76-10.17.76C101,77.05,89.66,78.51,78.31,80c-5.67.74-11.37,1.28-17.07,1.73C44.7,83,28.19,85,11.55,84.51,7.88,84.39,4,85,.77,81.87Zm8.62-5.06c7.63,1.06,14.73.49,21.81-.09,9.41-.78,18.82-1.67,28.23-2.52,4.85-.43,9.7-.8,14.55-1.3,8.53-.89,17-2,25.59-2.76,5.08-.48,10.14-1,14.92-1.66,1.39-3,1.61-5.41.19-8.2-1.65-.14-3.33-.42-5-.4q-23.62.23-47.26.57c-3.71.06-7.44.79-11.13.62-10.66-.47-21.16.85-31.65,2.35A22.27,22.27,0,0,0,8.51,68C8.8,70.92,9.08,73.66,9.39,76.81Z"/>

<path class="cls-1" d="M9.39,76.81c-.31-3.15-.59-5.89-.88-8.82a22.27,22.27,0,0,1,11.12-4.57c10.49-1.5,21-2.82,31.65-2.35,3.69.17,7.42-.56,11.13-.62q23.64-.37,47.26-.57c1.68,0,3.36.26,5,.4,1.42,2.79,1.2,5.18-.19,8.2-4.78.67-9.84,1.18-14.92,1.66C91,70.94,82.51,72,74,72.9c-4.85.5-9.7.87-14.55,1.3-9.41.85-18.82,1.74-28.23,2.52C24.12,77.3,17,77.87,9.39,76.81Z"/>


</g>

</g>

</svg>